<svg id="Layer_1" data-name="Layer 1" xmlns="http://www.w3.org/2000/svg" viewBox="0 0 210.59 22.8"><defs><style>.cls-1{fill:#fff;}.cls-2{fill:#9e9ea2;}.cls-3{fill:#049fd9;}</style></defs><title>Vector Smart Object6</title><path class="cls-1" d="M97.38,0" transform="translate(0 -3.35)"/><path class="cls-2" d="M29.36,20.62a3.3,3.3,0,0,0-1.59-.4,2,2,0,1,0,0,4,3.34,3.34,0,0,0,1.59-.4v2a6,6,0,0,1-1.73.27,3.88,3.88,0,1,1,0-7.77,5.76,5.76,0,0,1,1.73.27Z" transform="translate(0 -3.35)"/><path class="cls-2" d="M9.61,20.62A3.29,3.29,0,0,0,8,20.22a2,2,0,1,0,0,4,3.32,3.32,0,0,0,1.59-.4v2a6,6,0,0,1-1.73.27,3.88,3.88,0,1,1,0-7.77,5.75,5.75,0,0,1,1.73.27Z" transform="translate(0 -3.35)"/><path class="cls-2" d="M39.28,22.22a4,4,0,1,1-4-3.88,3.85,3.85,0,0,1,4,3.88m-4-2a2,2,0,1,0,2,2,1.94,1.94,0,0,0-2-2" transform="translate(0 -3.35)"/><path class="cls-2" d="M21.28,20.17a6.48,6.48,0,0,0-1.48-.23c-.76,0-1.17.25-1.17.61s.56.62.87.71l.52.17a2.26,2.26,0,0,1,1.79,2.15c0,1.88-1.66,2.52-3.1,2.52a11.42,11.42,0,0,1-2-.2V24.17a7.11,7.11,0,0,0,1.79.28c.94,0,1.38-.27,1.38-.7s-.37-.6-.84-.75l-.4-.13c-1.06-.33-1.93-1-1.93-2.19,0-1.4,1-2.34,2.79-2.34a8.08,8.08,0,0,1,1.85.24Z" transform="translate(0 -3.35)"/><path class="cls-2" d="M1.88,10.41a.94.94,0,0,0-1.88,0v2a.94.94,0,0,0,1.88,0Z" transform="translate(0 -3.35)"/><path class="cls-2" d="M7,7.82a.94.94,0,0,0-1.88,0v4.55a.94.94,0,0,0,1.88,0Z" transform="translate(0 -3.35)"/><path class="cls-2" d="M12.2,4.29a.94.94,0,0,0-1.88,0v10a.94.94,0,0,0,1.88,0Z" transform="translate(0 -3.35)"/><path class="cls-2" d="M17.36,7.82a.94.94,0,0,0-1.88,0v4.55a.94.94,0,0,0,1.88,0Z" transform="translate(0 -3.35)"/><path class="cls-2" d="M22.52,10.41a.94.94,0,0,0-1.87,0v2a.94.94,0,1,0,1.87,0Z" transform="translate(0 -3.35)"/><path class="cls-2" d="M27.68,7.82a.94.94,0,1,0-1.87,0v4.55a.94.94,0,1,0,1.87,0Z" transform="translate(0 -3.35)"/><path class="cls-2" d="M32.84,4.29a.94.94,0,0,0-1.87,0v10a.94.94,0,1,0,1.87,0Z" transform="translate(0 -3.35)"/><path class="cls-2" d="M38,7.82a.94.94,0,0,0-1.89,0v4.55a.94.94,0,0,0,1.89,0Z" transform="translate(0 -3.35)"/><path class="cls-2" d="M43.16,10.41a.94.94,0,0,0-1.87,0v2a.94.94,0,1,0,1.87,0Z" transform="translate(0 -3.35)"/><polygon class="cls-2" points="42.08 21.63 42.08 21.75 41.74 21.75 41.74 22.61 41.61 22.61 41.61 21.75 41.27 21.75 41.27 21.63 42.08 21.63"/><polygon class="cls-2" points="42.15 21.63 42.36 21.63 42.66 22.44 42.66 22.44 42.95 21.63 43.16 21.63 43.16 22.61 43.02 22.61 43.02 21.8 43.02 21.8 42.72 22.61 42.59 22.61 42.29 21.8 42.29 21.8 42.29 22.61 42.15 22.61 42.15 21.63"/><rect class="cls-2" x="12.21" y="15.11" width="1.89" height="7.5"/><path class="cls-3" d="M68.38,20.11h1.33a6.72,6.72,0,0,1-7,6c-4.61,0-7.73-3.4-7.73-8.77,0-5.87,3.35-9.06,7.73-9.06,3.71,0,6.52,2.09,7,5.52H68.41C67.86,11,65.7,9.48,62.72,9.48c-3.61,0-6.35,2.76-6.35,7.89,0,4.76,2.71,7.61,6.37,7.61A5.32,5.32,0,0,0,68.38,20.11Z" transform="translate(0 -3.35)"/><path class="cls-3" d="M72.35,10.43V8.67H73.9v1.76Zm.12,15.36V13.43h1.28V25.79Z" transform="translate(0 -3.35)"/><path class="cls-3" d="M80.67,19.8c-2.52-.43-4-1.5-4-3.45s1.5-3.28,4.49-3.28c2.57,0,4.47,1.33,4.83,3.42H84.65c-.21-1.38-1.59-2.38-3.54-2.38-2.16,0-3.14,1-3.14,2.12,0,1.36.81,2,3.45,2.52,3.16.59,4.64,1.57,4.64,3.71,0,2-1.81,3.69-4.85,3.69s-4.68-1.5-5-3.64h1.33c.19,1.57,1.55,2.59,3.66,2.59,2.28,0,3.5-1.24,3.5-2.57C84.72,20.94,83.48,20.3,80.67,19.8Z" transform="translate(0 -3.35)"/><path class="cls-3" d="M98.67,22.16a4.88,4.88,0,0,1-5.11,4c-3.07,0-5.49-2.24-5.49-6.44,0-4.38,2.45-6.63,5.52-6.63,2.64,0,4.61,1.47,5,3.78H97.2a3.38,3.38,0,0,0-3.57-2.71c-2.38,0-4.23,1.81-4.23,5.61,0,3.64,1.93,5.3,4.21,5.3a3.57,3.57,0,0,0,3.71-2.9Z" transform="translate(0 -3.35)"/><path class="cls-3" d="M106.38,13.07c3.28,0,5.68,2.21,5.68,6.54s-2.4,6.54-5.66,6.54-5.73-2.28-5.73-6.54S103.17,13.07,106.38,13.07Zm0,12c2.54,0,4.35-1.86,4.35-5.49s-1.83-5.49-4.35-5.49S102,16,102,19.61,103.9,25.11,106.38,25.11Z" transform="translate(0 -3.35)"/><path class="cls-3" d="M121.83,20.18V8.67h1.31V20.25c0,2.81,2.16,4.76,5.21,4.76s5.21-2,5.21-4.76V8.67h1.31V20.18c0,3.35-2.47,6-6.52,6S121.83,23.51,121.83,20.18Z" transform="translate(0 -3.35)"/><path class="cls-3" d="M138.19,25.79V13.43h1.07l.14,1.93a4.2,4.2,0,0,1,3.8-2.28,3.55,3.55,0,0,1,3.69,2.45,4.38,4.38,0,0,1,4-2.45c2.47,0,4,1.52,4,4.23v8.49h-1.28V17.38c0-2.21-1.09-3.21-3-3.21-2,0-3.47,1.76-3.47,4v7.66h-1.28V17.38c0-2.19-1-3.21-2.92-3.21a3.68,3.68,0,0,0-3.52,3.95v7.68Z" transform="translate(0 -3.35)"/><path class="cls-3" d="M158.12,25.79V8.67h1.28v7.06a4.73,4.73,0,0,1,4.35-2.66c3.07,0,5.21,2.14,5.21,6.4s-2.31,6.68-5.3,6.68a4.58,4.58,0,0,1-4.28-2.62l-.21,2.26Zm5.37-11.63c-2.09,0-4.19,1.5-4.19,5.45,0,3.61,1.74,5.45,4.16,5.45s4.16-1.81,4.16-5.61C167.63,15.81,165.89,14.17,163.49,14.17Z" transform="translate(0 -3.35)"/><path class="cls-3" d="M171.57,25.79V13.43h1l.19,2.38a3.59,3.59,0,0,1,3.47-2.73,4.46,4.46,0,0,1,1.28.19v1.26a4.9,4.9,0,0,0-1.36-.21c-1.81,0-3.35,1.76-3.35,4.73v6.75Z" transform="translate(0 -3.35)"/><path class="cls-3" d="M189.41,22.42a5,5,0,0,1-5.14,3.73c-3.35,0-5.87-2.31-5.87-6.54s2.45-6.54,5.64-6.54,5.59,2.14,5.59,6.85h-9.92c.12,3.52,2.12,5.14,4.59,5.14a3.69,3.69,0,0,0,3.76-2.64Zm-9.68-3.57h8.56c-.17-3.16-2-4.73-4.26-4.73S180,15.76,179.73,18.85Z" transform="translate(0 -3.35)"/><path class="cls-3" d="M193.64,25.79h-1.28V8.67h1.28Z" transform="translate(0 -3.35)"/><path class="cls-3" d="M198.23,25.79h-1.28V8.67h1.28Z" transform="translate(0 -3.35)"/><path class="cls-3" d="M201.2,16.64c.19-2.12,2.07-3.57,4.8-3.57s4.59,1.55,4.59,4.07v8.66h-1l-.19-2a4.86,4.86,0,0,1-4.38,2.4c-2.4,0-4.14-1.31-4.14-3.5s1.28-3.4,4.76-4l3.71-.62V17c0-1.78-1.26-2.88-3.38-2.88s-3.23,1-3.4,2.52Zm8.11,4.76V19.09l-3.33.57c-2.95.5-3.8,1.43-3.8,2.9,0,1.66,1.28,2.5,3.14,2.5A3.89,3.89,0,0,0,209.31,21.4Z" transform="translate(0 -3.35)"/></svg>